<?xml version="1.0" standalone="no"?><!-- Generator: Gravit.io --><svg xmlns="http://www.w3.org/2000/svg" xmlns:xlink="http://www.w3.org/1999/xlink" style="isolation:isolate" viewBox="0 0 480 480" width="480" height="480"><defs><clipPath id="_clipPath_vwEYSdSTlSoFenEj2G4TMWwJv2ZHOklu"><rect width="480" height="480"/></clipPath></defs><g clip-path="url(#_clipPath_vwEYSdSTlSoFenEj2G4TMWwJv2ZHOklu)"><path d=" M 240 8 C 111.871 8 8 111.871 8 240 C 8 368.129 111.871 472 240 472 C 368.129 472 472 368.129 472 240 C 472 111.871 368.129 8 240 8 Z  M 335.031 257.711 L 283.273 331.633 C 296.215 347.727 301.777 360.992 297 367.809 C 290.945 376.457 269.848 373.113 242.184 360.871 C 241.492 362.859 240.531 364.746 239.328 366.473 C 234.465 373.625 226.125 377.605 217.508 376.895 C 208.887 376.18 201.316 370.887 197.691 363.031 C 194.066 355.18 194.949 345.98 200 338.961 C 200.113 338.773 200.258 338.613 200.434 338.48 C 193.848 334.352 187.09 329.922 180.344 325.191 C 126.078 287.199 90.258 244.633 100.398 230.152 C 105.199 223.336 119.535 224.016 139.09 230.68 L 190.848 156.762 C 213.445 124.406 254.844 111.094 292.063 124.207 C 292.555 123.227 293.117 122.281 293.754 121.383 C 298.641 114.285 306.961 110.348 315.547 111.078 C 324.137 111.805 331.676 117.082 335.301 124.906 C 338.922 132.727 338.07 141.891 333.07 148.91 C 332.441 149.813 331.746 150.664 330.992 151.465 C 356.02 181.969 357.656 225.414 334.992 257.711 L 335.031 257.711 Z " fill="rgb(85,96,128)" fill-opacity="0.99507391"/><g><path d=" M 240 0 C 107.453 0 0 107.453 0 240 C 0 372.547 107.453 480 240 480 C 372.547 480 480 372.547 480 240 C 479.852 107.516 372.484 0.148 240 0 Z  M 240 464 C 116.289 464 16 363.711 16 240 C 16 116.289 116.289 16 240 16 C 363.711 16 464 116.289 464 240 C 463.859 363.652 363.652 463.859 240 464 Z " fill="rgb(85,96,128)" fill-opacity="0.996078431372549"/><path d=" M 341.016 151.352 C 349.469 136.961 345.441 118.496 331.77 108.926 C 318.098 99.359 299.367 101.906 288.742 114.777 C 249.527 103.891 207.699 118.863 184.305 152.168 L 135.93 221.266 C 114.48 214.863 100.32 216.32 93.848 225.559 C 78.098 248.07 125.266 296.383 175.77 331.754 C 180.313 334.953 185.07 338.09 189.902 341.215 C 186.07 351.031 187.336 362.109 193.281 370.809 C 199.227 379.512 209.086 384.715 219.625 384.711 C 230.066 384.73 239.859 379.656 245.863 371.113 C 257.934 376.531 270.883 379.738 284.09 380.574 C 291.535 381.297 298.848 378.227 303.551 372.406 C 310.031 363.168 306.535 349.383 293.152 331.406 L 341.602 262.297 C 364.961 228.938 364.734 184.469 341.031 151.352 L 341.016 151.352 Z  M 210.488 365.832 C 205.387 362.266 202.813 356.066 203.895 349.938 C 213.16 355.426 222.105 360.246 230.648 364.336 C 225.125 369.535 216.719 370.156 210.488 365.832 L 210.488 365.832 Z  M 210.488 182.5 C 228.877 216.833 250.961 265.025 276.711 327.047 C 274.672 329.965 274.801 333.875 277.031 336.648 C 291.113 354.145 234.234 224.512 233.5 225.559 C 232.41 227.16 301.512 245.887 269 231.5 C 254.922 225.164 246.563 229.492 233.5 221.266 C 226.691 217.012 219.277 209.398 213 205 C 152.473 162.598 141.59 237.371 145.711 231.5 C 146.512 230.387 115.078 230.953 136.574 238.258 C 139.945 239.406 143.672 238.188 145.711 235.273 L 263.5 225.559 C 284.09 196.223 255.637 119.926 289.473 131.754 C 293.258 133.086 297.445 131.41 299.266 127.832 C 299.59 127.184 248.086 132.348 248.5 131.754 C 253.633 124.703 208.855 234.996 216 240 C 223.145 245.004 339.367 249.266 334.5 256.5 C 334.094 257.086 325.73 145.461 325.238 145.977 C 322.477 148.91 230.934 183.895 233.5 187 C 256.258 214.727 349.145 223.766 328.543 253.129 L 210.488 182.5 Z " fill="rgb(231,236,237)"/></g></g></svg>